  <svg
            width="141"
            height="185"
            viewBox="0 0 141 185"
            fill="none"
            xmlns="http://www.w3.org/2000/svg"
          >
            <path
              d="M1.68784 124.27L39.8616 102.194C41.9579 100.98 44.5502 100.983 46.6465 102.203L139.318 156.154C141.565 157.461 141.559 160.714 139.31 162.015L101.137 184.092C99.0394 185.306 96.4529 185.302 94.3577 184.083L1.6765 130.132C-0.566376 128.825 -0.555038 125.572 1.68784 124.27Z"
              fill="#C93B17"
            />
            <path
              d="M97.7265 161.042C99.4408 161.042 100.468 159.662 100.473 157.349L100.75 50.5889C100.762 46.9264 98.183 42.451 95.0002 40.6118L40.2337 8.93965C39.3884 8.4474 38.5543 8.18771 37.8217 8.18771C36.1086 8.18771 35.0829 9.5685 35.0716 11.8807L34.8012 118.641C34.7899 122.304 37.3709 126.779 40.5492 128.62L95.3123 160.292C96.1622 160.783 96.9962 161.042 97.7265 161.042Z"
              fill="white"
            />
            <path
              d="M34.2825 120.034C34.2149 119.562 34.1698 119.094 34.1698 118.64C34.1698 119.095 34.2149 119.562 34.2825 120.034ZM40.8646 128.073L95.6266 159.745C96.3806 160.181 97.1065 160.412 97.7263 160.412C99.6311 160.412 99.8419 158.269 99.8441 157.348L100.121 50.5863C100.133 47.1846 97.643 42.8661 94.6856 41.1568L39.9178 9.48575C39.1627 9.0477 38.4414 8.8185 37.8215 8.8185C35.9168 8.8185 35.7027 10.9614 35.7027 11.8815L35.4321 118.643C35.4209 122.046 37.9004 126.363 40.8646 128.073ZM40.2335 129.164C39.839 128.939 39.467 128.667 39.0951 128.372C39.467 128.668 39.839 128.939 40.2335 129.164ZM34.0007 9.78383C34.012 4.62424 37.6637 2.54459 42.1382 5.1368L96.9047 36.809C101.387 39.4001 105.007 45.6819 104.993 50.8404L104.715 157.602C104.701 162.761 101.056 164.84 96.5745 162.249L41.8114 130.577C40.8647 130.029 39.9517 129.318 39.1177 128.487C38.8134 128.191 38.509 127.894 38.216 127.599C38.3851 127.767 38.5654 127.91 38.7458 128.065C36.593 126.195 34.925 123.294 34.3727 120.506C34.4291 120.751 34.4628 120.995 34.5305 121.242C34.4178 120.833 34.3051 120.426 34.2037 120.017C33.8881 118.84 33.719 117.666 33.719 116.544L34.0007 9.78383Z"
              fill="#3E111B"
            />
            <path
              d="M43.2766 0.548431C44.7531 -0.310745 46.793 -0.188812 49.0471 1.1152L103.811 32.7874C108.294 35.3796 111.915 41.6615 111.9 46.8199L111.622 153.58C111.615 156.143 110.711 157.946 109.255 158.794L102.348 162.815C103.805 161.967 104.707 160.165 104.715 157.602L104.993 50.8403C105.007 45.6819 101.387 39.4 96.9047 36.8089L42.1382 5.13676C39.8841 3.83275 37.844 3.71082 36.3676 4.56999L43.2766 0.548431Z"
              fill="#A5A8A6"
            />
            <path
              d="M66.4832 133.874C65.4012 133.248 64.5334 133.76 64.5222 135.005C64.5222 136.249 65.39 137.753 66.472 138.379C67.554 139.004 68.4331 138.513 68.4443 137.269C68.4443 136.023 67.5652 134.499 66.4832 133.874Z"
              fill="#3E111B"
            />
            <path
              d="M84.5254 144.308C83.4446 143.682 82.5598 144.187 82.5565 145.431C82.5531 146.675 83.431 148.186 84.5119 148.811C85.5927 149.436 86.4764 148.946 86.4809 147.701C86.4843 146.456 85.6063 144.933 84.5254 144.308Z"
              fill="#3E111B"
            />
            <path
              d="M48.4501 123.446C47.3681 122.821 46.4891 123.325 46.4891 124.571C46.4778 125.815 47.3569 127.326 48.4389 127.951C49.5209 128.576 50.3999 128.079 50.3999 126.833C50.3999 125.589 49.5321 124.072 48.4501 123.446Z"
              fill="#3E111B"
            />
            <path
              d="M65.5138 28.7256C65.8519 28.7256 66.2351 28.8373 66.6409 29.0722C68.0384 29.876 69.1543 31.8281 69.143 33.429C69.143 34.5614 68.5794 35.2129 67.7566 35.2129C67.4185 35.2129 67.0353 35.1022 66.6295 34.8662C65.232 34.0613 64.105 32.1182 64.105 30.5173C64.1162 29.3826 64.691 28.7256 65.5138 28.7256Z"
              fill="#3E111B"
            />
            <path
              d="M107.311 88.364L108.493 89.0527C108.279 88.9285 108.146 88.6644 108.145 88.2907L106.961 87.6019C106.963 87.9756 107.096 88.2398 107.311 88.364Z"
              fill="#3E111B"
            />
            <path
              d="M108.115 75.6463L106.932 74.9576L106.962 87.6026L108.146 88.2913L108.115 75.6463Z"
              fill="#3E111B"
            />
            <path
              d="M110.146 73.5042L108.963 72.8155C108.748 72.6902 108.449 72.7072 108.117 72.9002L109.299 73.5889C109.632 73.3958 109.93 73.3789 110.146 73.5042Z"
              fill="#3E111B"
            />
            <path
              d="M109.299 73.5884L108.117 72.8998C107.462 73.278 106.929 74.2049 106.931 74.9568L108.114 75.6455C108.112 74.8925 108.645 73.9666 109.299 73.5884Z"
              fill="#3E111B"
            />
            <path
              d="M109.3 73.5888C108.646 73.967 108.113 74.8928 108.115 75.6459L108.145 88.2908C108.148 89.0438 108.684 89.3498 109.339 88.9716C110.003 88.5877 110.526 87.6676 110.523 86.9145L110.493 74.2696C110.491 73.5177 109.963 73.2049 109.3 73.5888Z"
              fill="#803049"
            />
            <path
              d="M93.7828 58.6251L77.6962 49.5467C77.2206 49.278 76.8351 48.6232 76.8362 48.0891C76.8374 47.5551 77.2262 47.344 77.7018 47.6127L93.7885 56.6911C94.2641 56.9598 94.6496 57.609 94.6484 58.143C94.6462 58.6771 94.2584 58.8938 93.7828 58.6251Z"
              fill="#E55733"
            />
            <path
              d="M40.8986 39.7662L67.8919 55.0056C68.3765 55.2743 68.7598 55.9291 68.7598 56.4631C68.7598 56.9972 68.3653 57.2083 67.8919 56.9396L40.8874 41.7002C40.414 41.4315 40.0307 40.7834 40.0307 40.2483C40.0307 39.7143 40.4252 39.4975 40.8986 39.7662Z"
              fill="#E55733"
            />
            <path
              d="M93.5959 123.162L80.3787 115.703C79.903 115.434 79.521 114.782 79.5232 114.247C79.5244 113.713 79.9087 113.5 80.3843 113.769L93.6015 121.228C94.076 121.496 94.4626 122.145 94.4614 122.679C94.4592 123.214 94.0715 123.431 93.5959 123.162Z"
              fill="#E55733"
            />
            <path
              d="M70.0216 114.383L93.5818 127.68C94.0575 127.948 94.444 128.603 94.4429 129.137C94.4406 129.671 94.0518 129.882 93.5762 129.614L70.0216 116.318C69.5369 116.05 69.1649 115.404 69.1649 114.87C69.1649 114.336 69.5482 114.116 70.0216 114.383Z"
              fill="#E55733"
            />
            <path
              d="M55.6629 106.279L64.285 111.142C64.7583 111.411 65.1416 112.064 65.1416 112.599C65.1416 113.134 64.7471 113.345 64.2737 113.076L55.6629 108.215C55.1895 107.946 54.795 107.297 54.795 106.763C54.795 106.228 55.1895 106.011 55.6629 106.279Z"
              fill="#E55733"
            />
            <path
              d="M49.9598 90.1321L63.1691 97.5881C63.6425 97.8557 64.0369 98.5049 64.0256 99.0389C64.0256 99.574 63.6425 99.7908 63.1691 99.5221L49.9485 92.065C49.4751 91.7974 49.092 91.1426 49.092 90.6074C49.092 90.0734 49.4865 89.8634 49.9598 90.1321Z"
              fill="#E55733"
            />
            <path
              d="M40.7519 91.3958L74.6394 110.526C75.1151 110.795 75.5016 111.443 75.5005 111.978C75.4994 112.512 75.1095 112.729 74.6338 112.46L40.7406 93.3298C40.2673 93.0611 39.884 92.4074 39.884 91.8734C39.884 91.3382 40.2672 91.1271 40.7519 91.3958Z"
              fill="#E55733"
            />
            <path
              d="M40.7972 72.0305L58.6049 82.0809C59.0895 82.3496 59.4727 83.0045 59.4727 83.5385C59.4727 84.0725 59.0783 84.2893 58.6049 84.0206L40.7972 73.9701C40.3238 73.7014 39.9406 73.0477 39.9406 72.5136C39.9406 71.9785 40.3238 71.7617 40.7972 72.0305Z"
              fill="#E55733"
            />
            <path
              d="M39.9181 78.9666C39.9181 78.4326 40.3126 78.2214 40.786 78.4901L74.1044 97.2961C74.58 97.5648 74.9655 98.2128 74.9644 98.7469C74.9632 99.282 74.5744 99.4988 74.0977 99.2301L40.7748 80.4241C40.3014 80.1554 39.9181 79.5017 39.9181 78.9666Z"
              fill="#E55733"
            />
            <path
              d="M40.8425 59.1252L59.225 69.4997C59.6984 69.7684 60.0815 70.4221 60.0815 70.9572C60.0815 71.4913 59.687 71.708 59.2137 71.4393L40.8312 61.0648C40.3579 60.7961 39.9746 60.1424 39.9746 59.6073C39.9746 59.0732 40.3691 58.8565 40.8425 59.1252Z"
              fill="#E55733"
            />
            <path
              d="M51.4479 72.5444C51.4479 72.0103 51.831 71.7936 52.3157 72.0623L74.1414 84.3832C74.617 84.6519 75.0036 85.3067 75.0024 85.8407C75.0002 86.3748 74.6114 86.5915 74.1347 86.3228L52.3044 74.0019C51.8311 73.7344 51.4479 73.0795 51.4479 72.5444Z"
              fill="#E55733"
            />
            <path
              d="M93.6137 116.708L68.9061 102.764C68.4328 102.496 68.0496 101.845 68.0496 101.31C68.0496 100.776 68.4441 100.562 68.9175 100.831L93.6194 114.774C94.095 115.043 94.4816 115.691 94.4805 116.226C94.4782 116.76 94.0893 116.977 93.6137 116.708Z"
              fill="#E55733"
            />
            <path
              d="M93.6335 110.255L79.8437 102.473C79.3681 102.204 78.9861 101.553 78.9872 101.018C78.9894 100.483 79.3737 100.27 79.8482 100.538L93.6391 108.321C94.1147 108.59 94.5001 109.239 94.499 109.773C94.4979 110.307 94.1091 110.525 93.6335 110.255Z"
              fill="#E55733"
            />
            <path
              d="M49.9598 116.098L63.1691 123.556C63.6425 123.823 64.0369 124.472 64.0256 125.006C64.0256 125.542 63.6425 125.758 63.1691 125.49L49.9485 118.033C49.4751 117.765 49.092 117.11 49.092 116.575C49.092 116.041 49.4865 115.831 49.9598 116.098Z"
              fill="#E55733"
            />
            <path
              d="M39.9181 104.934C39.9181 104.4 40.3126 104.189 40.786 104.458L74.1044 123.264C74.58 123.532 74.9655 124.18 74.9644 124.714C74.9632 125.25 74.5744 125.466 74.0977 125.198L40.7748 106.392C40.3014 106.123 39.9181 105.469 39.9181 104.934Z"
              fill="#E55733"
            />
            <path
              d="M93.6137 142.676L68.9061 128.731C68.4328 128.464 68.0496 127.812 68.0496 127.277C68.0496 126.743 68.4441 126.53 68.9175 126.799L93.6194 140.742C94.095 141.011 94.4816 141.659 94.4805 142.194C94.4782 142.728 94.0893 142.945 93.6137 142.676Z"
              fill="#E55733"
            />
            <path
              d="M93.6335 136.222L79.8437 128.439C79.3681 128.171 78.9861 127.519 78.9872 126.985C78.9894 126.45 79.3737 126.237 79.8482 126.504L93.6391 134.288C94.1147 134.556 94.5001 135.206 94.499 135.74C94.4979 136.274 94.1091 136.492 93.6335 136.222Z"
              fill="#E55733"
            />
            <path
              d="M40.8539 52.6717L74.7527 71.8018C75.2283 72.0705 75.6149 72.7252 75.6138 73.2593C75.6126 73.7933 75.2227 74.0044 74.7471 73.7357L40.8539 54.6058C40.3806 54.337 39.9973 53.689 39.9973 53.155C39.9973 52.6198 40.3806 52.403 40.8539 52.6717Z"
              fill="#E55733"
            />
            <path
              d="M93.6525 103.802L64.3532 87.2634C63.8686 86.9959 63.4966 86.3444 63.4966 85.8093C63.4966 85.2753 63.8799 85.0551 64.3532 85.3238L93.657 101.863C94.1326 102.13 94.5192 102.785 94.5181 103.319C94.5158 103.854 94.127 104.071 93.6525 103.802Z"
              fill="#E55733"
            />
            <path
              d="M93.6896 90.8964L64.9617 74.6815C64.4883 74.4128 64.1052 73.7613 64.1052 73.2273C64.1052 72.6933 64.4883 72.4731 64.9617 72.7418L93.6952 88.9567C94.1709 89.2243 94.5563 89.8791 94.5552 90.4131C94.5529 90.9483 94.1652 91.1651 93.6896 90.8964Z"
              fill="#E55733"
            />
            <path
              d="M93.7075 84.4376L80.4915 76.9782C80.0158 76.7095 79.6338 76.0638 79.636 75.5297C79.6372 74.9957 80.0215 74.7755 80.4971 75.0442L93.7132 82.5036C94.1888 82.7712 94.5753 83.426 94.5742 83.9612C94.572 84.4952 94.1831 84.7063 93.7075 84.4376Z"
              fill="#E55733"
            />
            <path
              d="M93.7265 77.9838L51.2112 53.9889C50.7379 53.7214 50.3547 53.0722 50.3547 52.5381C50.3547 52.0041 50.7492 51.7873 51.2226 52.0549L93.7322 76.0498C94.2078 76.3185 94.5933 76.9733 94.5933 77.5074C94.591 78.0425 94.2021 78.2525 93.7265 77.9838Z"
              fill="#E55733"
            />
            <path
              d="M93.7453 71.5319L73.636 60.1819C73.1604 59.9132 72.7716 59.2652 72.7716 58.7311C72.7828 58.196 73.1661 57.9792 73.6417 58.2479L93.7498 69.5979C94.2254 69.8655 94.612 70.5203 94.6108 71.0554C94.6086 71.5894 94.2198 71.8006 93.7453 71.5319Z"
              fill="#E55733"
            />
            <path
              d="M93.7631 65.078L59.8665 45.9457C59.3931 45.677 59.01 45.0256 59.01 44.4904C59.01 43.9564 59.3931 43.743 59.8665 44.0106L93.7688 63.144C94.2445 63.4127 94.631 64.0607 94.6299 64.5959C94.6276 65.1299 94.2387 65.3467 93.7631 65.078Z"
              fill="#E55733"
            />
            <path
              d="M71.9495 46.3043L40.9326 28.7944C40.4479 28.5257 40.0648 27.872 40.0648 27.3369C40.0648 26.8028 40.4592 26.5918 40.9326 26.8605L71.9609 44.3703C72.4342 44.639 72.8174 45.2848 72.8174 45.8188C72.8174 46.354 72.4229 46.573 71.9495 46.3043Z"
              fill="#E55733"
            />
            <path
              d="M93.6703 97.3487L79.8807 89.5664C79.4051 89.2977 79.023 88.6463 79.0242 88.1112C79.0264 87.5771 79.4107 87.3569 79.8863 87.6256L93.6761 95.4091C94.1517 95.6778 94.5382 96.3326 94.5371 96.8666C94.5349 97.4007 94.146 97.6174 93.6703 97.3487Z"
              fill="#E55733"
            />
          </svg>